2.5Hzhigh3min_grf.mot
version=1
nRows=10
nColumns 19
inDegrees=yes
endheader
time	1_ground_force_vx	1_ground_force_vy	1_ground_force_vz	1_ground_force_px	1_ground_force_py	1_ground_force_pz	1_ground_torque_x	1_ground_torque_y	1_ground_torque_z	2_ground_force_vx	2_ground_force_vy	2_ground_force_vz	2_ground_force_px	2_ground_force_py	2_ground_force_pz	2_ground_torque_x	2_ground_torque_y	2_ground_torque_z
            0.005000	            4.807573	           25.060218	           -0.454776	           -0.235389	            0.005979	           -0.348617	            0.044076	            0.229752	           -0.004169	           11.304086	           47.930887	           -2.884373	           -0.266512	            0.005299	           -0.635258	           -0.006342	           -0.026891	            0.001618
            0.005500	            4.578555	           23.978580	           -0.458845	           -0.238207	            0.005966	           -0.345619	            0.048043	            0.251610	           -0.004815	           11.452673	           45.721113	           -2.751533	           -0.263602	            0.005307	           -0.634607	           -0.075854	           -0.302821	            0.018224
            0.006000	            4.303548	           23.077395	           -0.507883	           -0.237439	            0.005950	           -0.341802	            0.013304	            0.071340	           -0.001570	           10.990197	           44.061752	           -2.663391	           -0.263659	            0.005319	           -0.637972	           -0.102584	           -0.411280	            0.024861
            0.006500	            3.891419	           21.815062	           -0.420558	           -0.236108	            0.005973	           -0.347227	           -0.018115	           -0.101553	            0.001958	           10.808717	           42.404242	           -2.810009	           -0.262910	            0.005324	           -0.638610	           -0.134141	           -0.526256	            0.034873
            0.007000	            3.616559	           20.733415	           -0.424513	           -0.233329	            0.005948	           -0.341283	           -0.039041	           -0.223821	            0.004583	           10.394982	           40.193442	           -2.958499	           -0.264955	            0.005302	           -0.634700	           -0.108037	           -0.417739	            0.030748
            0.007500	            3.249899	           19.651947	           -0.474096	           -0.234049	            0.005937	           -0.338658	           -0.023715	           -0.143404	            0.003460	            9.931738	           38.719066	           -3.104341	           -0.261971	            0.005304	           -0.632165	           -0.059515	           -0.232021	            0.018603
            0.008000	            2.836970	           19.652457	           -0.610640	           -0.233580	            0.005926	           -0.335983	            0.015896	            0.110116	           -0.003422	            9.327280	           37.428331	           -3.249465	           -0.261625	            0.005307	           -0.632580	           -0.016033	           -0.064337	            0.005586
            0.008500	            3.020671	           17.849835	           -0.618825	           -0.232761	            0.005908	           -0.331804	            0.048638	            0.287411	           -0.009964	            9.099739	           35.585500	           -3.115152	           -0.261164	            0.005297	           -0.629437	           -0.030202	           -0.118108	            0.010339
            0.009000	            3.157295	           15.328502	           -1.180258	           -0.228234	            0.005955	           -0.342593	            0.044339	            0.215264	           -0.016575	            9.057623	           34.295623	           -2.932019	           -0.259402	            0.005324	           -0.635217	           -0.077483	           -0.293380	            0.025082
            0.009500	            2.424295	           15.147308	           -0.995787	           -0.233610	            0.005956	           -0.342958	            0.009096	            0.056830	           -0.003736	            8.687538	           33.004729	           -2.795675	           -0.259676	            0.005324	           -0.635384	           -0.112843	           -0.428702	            0.036313
